<svg width="1200" height="630" viewBox="0 0 1200 630" fill="none" xmlns="http://www.w3.org/2000/svg">
  <defs>
    <linearGradient id="og-bg-gradient" x1="0%" y1="0%" x2="100%" y2="100%">
      <stop offset="0%" style="stop-color:#1E40AF"/>
      <stop offset="50%" style="stop-color:#1D4ED8"/>
      <stop offset="100%" style="stop-color:#2563EB"/>
    </linearGradient>
    <linearGradient id="og-logo-gradient" x1="0%" y1="0%" x2="100%" y2="100%">
      <stop offset="0%" style="stop-color:#60A5FA"/>
      <stop offset="100%" style="stop-color:#3B82F6"/>
    </linearGradient>
  </defs>
  
  <!-- Background -->
  <rect width="1200" height="630" fill="url(#og-bg-gradient)"/>
  
  <!-- Decorative circles -->
  <circle cx="1000" cy="100" r="300" fill="white" opacity="0.03"/>
  <circle cx="200" cy="500" r="200" fill="white" opacity="0.03"/>
  
  <!-- Grid pattern overlay -->
  <pattern id="grid" width="40" height="40" patternUnits="userSpaceOnUse">
    <path d="M 40 0 L 0 0 0 40" fill="none" stroke="white" stroke-width="0.5" opacity="0.05"/>
  </pattern>
  <rect width="1200" height="630" fill="url(#grid)"/>
  
  <!-- Logo Mark -->
  <rect x="100" y="215" width="100" height="100" rx="24" fill="url(#og-logo-gradient)"/>
  <path d="M150 245L180 265L150 285L120 265L150 245Z" fill="white"/>
  <path d="M150 250L175 265L150 280L125 265L150 250Z" fill="url(#og-logo-gradient)" opacity="0.15"/>
  <path d="M150 245L180 265L150 255L120 265L150 245Z" fill="white" opacity="0.3"/>
  
  <!-- ONYX REPORT Text -->
  <text x="220" y="260" font-family="Inter, -apple-system, BlinkMacSystemFont, sans-serif" font-size="56" font-weight="700" fill="white" letter-spacing="-0.02em">ONYX</text>
  <text x="378" y="260" font-family="Inter, -apple-system, BlinkMacSystemFont, sans-serif" font-size="56" font-weight="700" fill="#93C5FD" letter-spacing="-0.02em">REPORT</text>
  
  <!-- Tagline -->
  <text x="220" y="305" font-family="Inter, -apple-system, BlinkMacSystemFont, sans-serif" font-size="24" font-weight="400" fill="#93C5FD" letter-spacing="0.05em">FACILITY CONDITION INTELLIGENCE</text>
  
  <!-- Brand promise -->
  <text x="100" y="480" font-family="Inter, -apple-system, BlinkMacSystemFont, sans-serif" font-size="32" font-weight="500" fill="white" opacity="0.9">See clearly. Decide confidently. Plan strategically.</text>
  
  <!-- URL -->
  <text x="100" y="560" font-family="Inter, -apple-system, BlinkMacSystemFont, sans-serif" font-size="20" font-weight="400" fill="#93C5FD">onyxreport.com</text>
</svg>
